<svg id="Layer_1" data-name="Layer 1" xmlns="http://www.w3.org/2000/svg" viewBox="0 0 28 17.65"><defs><style>.cls-1{fill:#f00;}.cls-2{fill:#fff;}</style></defs><polyline class="cls-1" points="17.8 9.97 10.12 17.65 0.21 7.75"/><rect class="cls-1" width="28" height="14" rx="2"/><path class="cls-2" d="M3.81,10.76V3.48H5.34v3H8.47v-3H10v7.28H8.47v-3H5.34v3Z" transform="translate(0.01 0.02)"/><path class="cls-2" d="M18,7.12a4.26,4.26,0,0,1-.45,2,3.18,3.18,0,0,1-1.22,1.27,3.64,3.64,0,0,1-3.47,0,3.14,3.14,0,0,1-1.22-1.28,4.19,4.19,0,0,1-.45-2,4.19,4.19,0,0,1,.45-2,3.14,3.14,0,0,1,1.22-1.28,3.72,3.72,0,0,1,3.47,0A3.21,3.21,0,0,1,17.5,5.1,4.19,4.19,0,0,1,18,7.12Zm-1.56,0a3.15,3.15,0,0,0-.23-1.3,1.72,1.72,0,0,0-.64-.8,1.9,1.9,0,0,0-1.95,0,1.78,1.78,0,0,0-.64.8,3.15,3.15,0,0,0-.23,1.3,3.15,3.15,0,0,0,.23,1.3,1.78,1.78,0,0,0,.64.8,1.84,1.84,0,0,0,1.95,0,1.72,1.72,0,0,0,.64-.8A3.15,3.15,0,0,0,16.39,7.12Z" transform="translate(0.01 0.02)"/><path class="cls-2" d="M18.49,4.75V3.48h6V4.75H22.23v6H20.71v-6Z" transform="translate(0.01 0.02)"/></svg>